<svg width="24" height="24" viewBox="0 0 24 24" fill="none" xmlns="http://www.w3.org/2000/svg">
<g id="Layer 3">
<path id="Vector" d="M22.3558 14.3079C22.1186 14.3079 21.8912 14.4021 21.7235 14.5698C21.5558 14.7375 21.4616 14.9649 21.4616 15.2021V18.7791C21.4608 19.4903 21.1779 20.1722 20.6749 20.6752C20.172 21.1781 19.4901 21.461 18.7788 21.4618H15.2019C14.9647 21.4618 14.7372 21.556 14.5695 21.7237C14.4018 21.8914 14.3076 22.1189 14.3076 22.3561C14.3076 22.5932 14.4018 22.8207 14.5695 22.9884C14.7372 23.1561 14.9647 23.2503 15.2019 23.2503H18.7788C19.9643 23.2492 21.101 22.7778 21.9393 21.9395C22.7775 21.1012 23.249 19.9646 23.2501 18.7791V15.2021C23.2501 14.9649 23.1558 14.7375 22.9881 14.5698C22.8204 14.4021 22.593 14.3079 22.3558 14.3079Z" fill="white"/>
<path id="Vector_2" d="M18.7788 0H15.2019C14.9647 0 14.7372 0.0942148 14.5695 0.261918C14.4018 0.429621 14.3076 0.657075 14.3076 0.894243C14.3076 1.13141 14.4018 1.35887 14.5695 1.52657C14.7372 1.69427 14.9647 1.78849 15.2019 1.78849H18.7788C19.4901 1.78929 20.172 2.07219 20.6749 2.57513C21.1779 3.07806 21.4608 3.75996 21.4616 4.47122V8.04819C21.4616 8.28536 21.5558 8.51281 21.7235 8.68052C21.8912 8.84822 22.1186 8.94243 22.3558 8.94243C22.593 8.94243 22.8204 8.84822 22.9881 8.68052C23.1558 8.51281 23.2501 8.28536 23.2501 8.04819V4.47122C23.2488 3.28575 22.7773 2.1492 21.9391 1.31095C21.1009 0.472699 19.9643 0.00123096 18.7788 0Z" fill="white"/>
<path id="Vector_3" d="M8.04819 0H4.47122C3.28575 0.00123096 2.1492 0.472699 1.31095 1.31095C0.472699 2.1492 0.00123096 3.28575 0 4.47122V8.04819C0 8.28536 0.0942148 8.51281 0.261918 8.68052C0.429621 8.84822 0.657075 8.94243 0.894243 8.94243C1.13141 8.94243 1.35887 8.84822 1.52657 8.68052C1.69427 8.51281 1.78849 8.28536 1.78849 8.04819V4.47122C1.78929 3.75996 2.07219 3.07806 2.57513 2.57513C3.07806 2.07219 3.75996 1.78929 4.47122 1.78849H8.04819C8.28536 1.78849 8.51281 1.69427 8.68052 1.52657C8.84822 1.35887 8.94243 1.13141 8.94243 0.894243C8.94243 0.657075 8.84822 0.429621 8.68052 0.261918C8.51281 0.0942148 8.28536 0 8.04819 0Z" fill="white"/>
<path id="Vector_4" d="M0 18.7791C0.00108916 19.9646 0.472513 21.1012 1.31079 21.9395C2.14907 22.7778 3.28571 23.2492 4.47122 23.2503H8.04819C8.28536 23.2503 8.51281 23.1561 8.68052 22.9884C8.84822 22.8207 8.94243 22.5932 8.94243 22.3561C8.94243 22.1189 8.84822 21.8914 8.68052 21.7237C8.51281 21.556 8.28536 21.4618 8.04819 21.4618H4.47122C3.75996 21.461 3.07806 21.1781 2.57513 20.6752C2.07219 20.1722 1.78929 19.4903 1.78849 18.7791V15.2021C1.78849 14.9649 1.69427 14.7375 1.52657 14.5698C1.35887 14.4021 1.13141 14.3079 0.894243 14.3079C0.657075 14.3079 0.429621 14.4021 0.261918 14.5698C0.0942148 14.7375 0 14.9649 0 15.2021V18.7791Z" fill="white"/>
<path id="Vector_5" d="M10.7308 5.3654C9.88485 5.36192 9.05004 5.55852 8.29453 5.93917C7.53902 6.31982 6.88423 6.87373 6.3836 7.55568C5.88297 8.23763 5.55069 9.0283 5.41388 9.86314C5.27708 10.698 5.33962 11.5534 5.5964 12.3594C5.85319 13.1655 6.29694 13.8994 6.89144 14.5013C7.48594 15.1032 8.21434 15.5559 9.01718 15.8227C9.82002 16.0894 10.6746 16.1625 11.511 16.036C12.3475 15.9095 13.1422 15.5869 13.8303 15.0948L16.3583 17.6226C16.527 17.7855 16.7528 17.8756 16.9873 17.8736C17.2218 17.8716 17.4461 17.7775 17.6119 17.6117C17.7777 17.4459 17.8717 17.2216 17.8738 16.9872C17.8758 16.7527 17.7857 16.5268 17.6228 16.3582L15.0947 13.8303C15.6685 13.0298 16.0102 12.0864 16.0819 11.1041C16.1537 10.1218 15.9529 9.1387 15.5016 8.26325C15.0503 7.38781 14.366 6.65398 13.5242 6.14266C12.6824 5.63133 11.7157 5.36236 10.7308 5.3654ZM7.15385 10.7309C7.15385 10.0234 7.36364 9.33183 7.75668 8.7436C8.14972 8.15537 8.70837 7.6969 9.36198 7.42617C10.0156 7.15544 10.7348 7.0846 11.4287 7.22262C12.1225 7.36064 12.7599 7.70131 13.2601 8.20156C13.7604 8.70181 14.1011 9.33916 14.2391 10.033C14.3771 10.7269 14.3063 11.4461 14.0355 12.0997C13.7648 12.7533 13.3063 13.312 12.7181 13.705C12.1299 14.098 11.4383 14.3078 10.7308 14.3078C9.78249 14.3067 8.8733 13.9295 8.20273 13.259C7.53215 12.5884 7.15494 11.6792 7.15385 10.7309Z" fill="white"/>
</g>
</svg>
