<svg width="52" height="66" viewBox="0 0 52 66" fill="none" xmlns="http://www.w3.org/2000/svg">
<path d="M24.2491 47.8896C23.6798 47.8896 23.2178 48.3516 23.2178 48.9209C23.2178 49.4901 23.6798 49.9521 24.2491 49.9521C29.363 49.9521 34.1809 47.6947 37.4674 43.7575C40.0311 40.6854 41.4428 36.7791 41.4428 32.7573C41.4428 29.1325 40.3373 25.6768 38.247 22.7657C35.0162 18.2551 29.7827 15.5625 24.248 15.5625C23.6788 15.5625 23.2168 16.0245 23.2168 16.5937C23.2168 17.163 23.6788 17.625 24.248 17.625C29.1196 17.625 33.7261 19.9958 36.5713 23.9671C38.4089 26.5266 39.3804 29.5656 39.3804 32.7563C39.3804 36.2965 38.1388 39.7336 35.8834 42.4344C32.9898 45.9004 28.7494 47.8886 24.248 47.8886L24.2491 47.8896Z" fill="#BA4345"/>
<path d="M51.1251 13.7732C50.793 13.3122 50.1495 13.207 49.6855 13.5401L44.9057 16.9865C40.1713 10.9012 32.9661 7.19389 25.2793 6.88761V1.03123C25.2793 0.461993 24.8173 0 24.248 0C23.6788 0 23.2168 0.461993 23.2168 1.03123V7.88791C23.2168 8.45715 23.6788 8.91914 24.248 8.91914C32.0008 8.91914 39.3309 12.6914 43.8569 19.0108C46.7815 23.0852 48.3284 27.9217 48.3284 32.9995C48.3284 38.6321 46.3515 44.1028 42.7638 48.402C38.1594 53.917 31.411 57.0809 24.248 57.0809C23.6788 57.0809 23.2168 57.5429 23.2168 58.1121V64.9688C23.2168 65.538 23.6788 66 24.248 66C24.8173 66 25.2793 65.538 25.2793 64.9688V59.1145C32.3277 58.8381 38.9287 55.7434 43.6682 50.4923L48.3707 54.3656C48.5625 54.5234 48.7945 54.6007 49.0255 54.6007C49.3235 54.6007 49.6184 54.4729 49.8216 54.2254C50.1836 53.7861 50.1207 53.1354 49.6814 52.7734L44.9758 48.897C48.4614 44.3606 50.3898 38.7651 50.3898 32.9995C50.3898 27.8361 48.8976 22.9099 46.0988 18.6674L50.891 15.2128C51.353 14.8797 51.4582 14.2352 51.1251 13.7732Z" fill="#BA4345"/>
<path d="M13.5 46C6.05644 46 0 39.9436 0 32.5C0 25.0564 6.05644 19 13.5 19C20.9436 19 27 25.0564 27 32.5C27 39.9436 20.9436 46 13.5 46ZM13.5 20.6875C6.98625 20.6875 1.6875 25.9863 1.6875 32.5C1.6875 39.0138 6.98625 44.3125 13.5 44.3125C20.0138 44.3125 25.3125 39.0138 25.3125 32.5C25.3125 25.9863 20.0138 20.6875 13.5 20.6875ZM17.8251 37.6891C17.6082 37.6891 17.3922 37.6064 17.2268 37.441L13.4975 33.6931L9.75037 37.4233C9.41878 37.7515 8.88553 37.7498 8.55647 37.4207C8.22825 37.09 8.22909 36.5559 8.559 36.2268L12.3069 32.4975L8.57672 28.7504C8.2485 28.4196 8.24934 27.8855 8.57925 27.5565C8.91 27.2274 9.44325 27.2291 9.77316 27.559L13.5025 31.3069L17.2496 27.5767C17.5804 27.2477 18.1136 27.2493 18.4435 27.5793C18.7717 27.91 18.7709 28.4441 18.441 28.7732L14.6931 32.5025L18.4233 36.2496C18.7515 36.5804 18.7507 37.1145 18.4207 37.4435C18.2554 37.6072 18.0402 37.6891 17.8251 37.6891Z" fill="#BA4345"/>
</svg>
