<svg width="51" height="66" viewBox="0 0 51 66" fill="none" xmlns="http://www.w3.org/2000/svg">
<path d="M23.2491 47.8896C22.6798 47.8896 22.2178 48.3516 22.2178 48.9209C22.2178 49.4901 22.6798 49.9521 23.2491 49.9521C28.363 49.9521 33.1809 47.6947 36.4674 43.7575C39.0311 40.6854 40.4428 36.7791 40.4428 32.7573C40.4428 29.1325 39.3373 25.6768 37.247 22.7657C34.0162 18.2551 28.7827 15.5625 23.248 15.5625C22.6788 15.5625 22.2168 16.0245 22.2168 16.5937C22.2168 17.163 22.6788 17.625 23.248 17.625C28.1196 17.625 32.7261 19.9958 35.5713 23.9671C37.4089 26.5266 38.3804 29.5656 38.3804 32.7563C38.3804 36.2965 37.1388 39.7336 34.8834 42.4344C31.9898 45.9004 27.7494 47.8886 23.248 47.8886L23.2491 47.8896Z" fill="#43BA9F"/>
<path d="M50.1251 13.7732C49.793 13.3122 49.1495 13.207 48.6855 13.5401L43.9057 16.9865C39.1713 10.9012 31.9661 7.19389 24.2793 6.88761V1.03123C24.2793 0.461993 23.8173 0 23.248 0C22.6788 0 22.2168 0.461993 22.2168 1.03123V7.88791C22.2168 8.45715 22.6788 8.91914 23.248 8.91914C31.0008 8.91914 38.3309 12.6914 42.8569 19.0108C45.7815 23.0852 47.3284 27.9217 47.3284 32.9995C47.3284 38.6321 45.3515 44.1028 41.7638 48.402C37.1594 53.917 30.411 57.0809 23.248 57.0809C22.6788 57.0809 22.2168 57.5429 22.2168 58.1121V64.9688C22.2168 65.538 22.6788 66 23.248 66C23.8173 66 24.2793 65.538 24.2793 64.9688V59.1145C31.3277 58.8381 37.9287 55.7434 42.6682 50.4923L47.3707 54.3656C47.5625 54.5234 47.7945 54.6007 48.0255 54.6007C48.3235 54.6007 48.6184 54.4729 48.8216 54.2254C49.1836 53.7861 49.1207 53.1354 48.6814 52.7734L43.9758 48.897C47.4614 44.3606 49.3898 38.7651 49.3898 32.9995C49.3898 27.8361 47.8976 22.9099 45.0988 18.6674L49.891 15.2128C50.353 14.8797 50.4582 14.2352 50.1251 13.7732Z" fill="#43BA9F"/>
<path d="M13.5 46C6.05644 46 0 39.9436 0 32.5C0 25.0564 6.05644 19 13.5 19C20.9436 19 27 25.0564 27 32.5C27 39.9436 20.9436 46 13.5 46ZM13.5 20.6875C6.98625 20.6875 1.6875 25.9863 1.6875 32.5C1.6875 39.0138 6.98625 44.3125 13.5 44.3125C20.0138 44.3125 25.3125 39.0138 25.3125 32.5C25.3125 25.9863 20.0138 20.6875 13.5 20.6875Z" fill="#43BA9F"/>
<path d="M20.659 27.9064C20.259 27.5143 19.659 27.5143 19.259 27.9064L11.759 35.2594L8.65898 32.2201C8.25898 31.828 7.65898 31.828 7.25898 32.2201C6.85898 32.6123 6.85898 33.2005 7.25898 33.5927L11.059 37.3182C11.259 37.5143 11.459 37.6123 11.759 37.6123C12.059 37.6123 12.259 37.5143 12.459 37.3182L20.659 29.279C21.059 28.8868 21.059 28.2986 20.659 27.9064Z" fill="#43BA9F"/>
</svg>
