<svg width="45" height="66" viewBox="0 0 45 66" fill="none" xmlns="http://www.w3.org/2000/svg">
<path d="M17.2491 47.8896C16.6798 47.8896 16.2178 48.3516 16.2178 48.9209C16.2178 49.4901 16.6798 49.9521 17.2491 49.9521C22.363 49.9521 27.1809 47.6947 30.4674 43.7575C33.0311 40.6854 34.4428 36.7791 34.4428 32.7573C34.4428 29.1325 33.3373 25.6768 31.247 22.7657C28.0162 18.2551 22.7827 15.5625 17.248 15.5625C16.6788 15.5625 16.2168 16.0245 16.2168 16.5937C16.2168 17.163 16.6788 17.625 17.248 17.625C22.1196 17.625 26.7261 19.9958 29.5713 23.9671C31.4089 26.5266 32.3804 29.5656 32.3804 32.7563C32.3804 36.2965 31.1388 39.7336 28.8834 42.4344C25.9898 45.9004 21.7494 47.8886 17.248 47.8886L17.2491 47.8896Z" fill="#2793F2"/>
<path d="M44.1251 13.7732C43.793 13.3122 43.1495 13.207 42.6855 13.5401L37.9057 16.9865C33.1713 10.9012 25.9661 7.19389 18.2793 6.88761V1.03123C18.2793 0.461993 17.8173 0 17.248 0C16.6788 0 16.2168 0.461993 16.2168 1.03123V7.88791C16.2168 8.45715 16.6788 8.91914 17.248 8.91914C25.0008 8.91914 32.3309 12.6914 36.8569 19.0108C39.7815 23.0852 41.3284 27.9217 41.3284 32.9995C41.3284 38.6321 39.3515 44.1028 35.7638 48.402C31.1594 53.917 24.411 57.0809 17.248 57.0809C16.6788 57.0809 16.2168 57.5429 16.2168 58.1121V64.9688C16.2168 65.538 16.6788 66 17.248 66C17.8173 66 18.2793 65.538 18.2793 64.9688V59.1145C25.3277 58.8381 31.9287 55.7434 36.6682 50.4923L41.3707 54.3656C41.5625 54.5234 41.7945 54.6007 42.0255 54.6007C42.3235 54.6007 42.6184 54.4729 42.8216 54.2254C43.1836 53.7861 43.1207 53.1354 42.6814 52.7734L37.9758 48.897C41.4614 44.3606 43.3898 38.7651 43.3898 32.9995C43.3898 27.8361 41.8976 22.9099 39.0988 18.6674L43.891 15.2128C44.353 14.8797 44.4582 14.2352 44.1251 13.7732Z" fill="#2793F2"/>
<path d="M25.6548 45.5907L19.7755 39.7114C21.58 37.6537 22.5756 35.0501 22.5756 32.2878C22.5756 29.2726 21.4013 26.4381 19.2694 24.3062C17.1375 22.1743 14.303 21 11.2878 21C8.27258 21 5.43814 22.1743 3.30624 24.3062C1.17434 26.4381 0 29.2726 0 32.2878C0 35.303 1.17434 38.1375 3.30624 40.2694C5.43814 42.4013 8.27258 43.5756 11.2878 43.5756C14.0501 43.5756 16.6537 42.58 18.7114 40.7755L24.5907 46.6548C24.7376 46.8018 24.9302 46.8752 25.1227 46.8752C25.3153 46.8752 25.5078 46.8018 25.6548 46.6548C25.9487 46.3608 25.9487 45.8846 25.6548 45.5907ZM4.37035 39.2053C2.52285 37.3574 1.50504 34.9007 1.50504 32.2878C1.50504 29.6749 2.52285 27.2182 4.37035 25.3704C6.21822 23.5229 8.67493 22.505 11.2878 22.505C13.9007 22.505 16.3574 23.5229 18.2053 25.3704C20.0528 27.2182 21.0706 29.6749 21.0706 32.2878C21.0706 34.9007 20.0528 37.3574 18.2053 39.2053C16.3574 41.0528 13.9007 42.0706 11.2878 42.0706C8.67493 42.0706 6.21822 41.0528 4.37035 39.2053Z" fill="#2793F2"/>
</svg>
