<svg width="61" height="66" viewBox="0 0 61 66" fill="none" xmlns="http://www.w3.org/2000/svg">
<path d="M33.2491 47.8899C32.6798 47.8899 32.2178 48.3519 32.2178 48.9211C32.2178 49.4903 32.6798 49.9523 33.2491 49.9523C38.363 49.9523 43.1809 47.695 46.4674 43.7577C49.0311 40.6857 50.4428 36.7794 50.4428 32.7575C50.4428 29.1328 49.3373 25.6771 47.247 22.7659C44.0162 18.2553 38.7827 15.5627 33.248 15.5627C32.6788 15.5627 32.2168 16.0247 32.2168 16.594C32.2168 17.1632 32.6788 17.6252 33.248 17.6252C38.1196 17.6252 42.7261 19.996 45.5713 23.9673C47.4089 26.5268 48.3804 29.5659 48.3804 32.7565C48.3804 36.2967 47.1388 39.7338 44.8834 42.4346C41.9898 45.9006 37.7494 47.8888 33.248 47.8888L33.2491 47.8899Z" fill="#D182E4"/>
<path d="M15.2638 26.5061C19.6527 26.5061 23.2238 22.9359 23.2238 18.546C23.2238 14.156 19.6537 10.5869 15.2638 10.5869C10.8738 10.5869 7.30469 14.157 7.30469 18.546C7.30469 22.9349 10.8748 26.5061 15.2638 26.5061ZM15.2638 12.6494C18.5152 12.6494 21.1614 15.2945 21.1614 18.546C21.1614 21.7975 18.5163 24.4436 15.2638 24.4436C12.0112 24.4436 9.36716 21.7985 9.36716 18.546C9.36716 15.2935 12.0123 12.6494 15.2638 12.6494Z" fill="#D182E4"/>
<path d="M21.5373 27.7284C21.2878 27.6242 21.0062 27.6221 20.7556 27.7232C17.3454 29.0958 13.5731 29.1525 10.0741 27.8335C9.82044 27.7397 9.54201 27.7459 9.29451 27.8552C3.64851 30.3446 0 35.9329 0 42.0924V49.441C0 51.5952 1.7531 53.3483 3.90735 53.3483H27.2122C29.3664 53.3483 31.1195 51.5952 31.1195 49.441V42.0924C31.1195 37.9252 29.4964 34.0199 26.5553 31.1036C25.1188 29.6547 23.4307 28.5193 21.5384 27.7294L21.5373 27.7284ZM29.0571 49.441C29.0571 50.4578 28.229 51.2859 27.2122 51.2859H3.90735C2.89055 51.2859 2.06247 50.4578 2.06247 49.441V42.0924C2.06247 36.8857 5.06852 32.1482 9.7565 29.9125C13.4782 31.2108 17.4763 31.1531 21.1176 29.795C22.6067 30.4694 23.9422 31.3975 25.0961 32.5618C27.6505 35.0945 29.056 38.48 29.056 42.0924V49.441H29.0571Z" fill="#D182E4"/>
<path d="M60.1251 13.7732C59.793 13.3122 59.1495 13.207 58.6855 13.5401L53.9057 16.9865C49.1713 10.9012 41.9661 7.19389 34.2793 6.88761V1.03123C34.2793 0.461993 33.8173 0 33.248 0C32.6788 0 32.2168 0.461993 32.2168 1.03123V7.88791C32.2168 8.45715 32.6788 8.91914 33.248 8.91914C41.0008 8.91914 48.3309 12.6914 52.8569 19.0108C55.7815 23.0852 57.3284 27.9217 57.3284 32.9995C57.3284 38.6321 55.3515 44.1028 51.7638 48.402C47.1594 53.917 40.411 57.0809 33.248 57.0809C32.6788 57.0809 32.2168 57.5429 32.2168 58.1121V64.9688C32.2168 65.538 32.6788 66 33.248 66C33.8173 66 34.2793 65.538 34.2793 64.9688V59.1145C41.3277 58.8381 47.9287 55.7434 52.6682 50.4923L57.3707 54.3656C57.5625 54.5234 57.7945 54.6007 58.0255 54.6007C58.3235 54.6007 58.6184 54.4729 58.8216 54.2254C59.1836 53.7861 59.1207 53.1354 58.6814 52.7734L53.9758 48.897C57.4614 44.3606 59.3898 38.7651 59.3898 32.9995C59.3898 27.8361 57.8976 22.9099 55.0988 18.6674L59.891 15.2128C60.353 14.8797 60.4582 14.2352 60.1251 13.7732Z" fill="#D182E4"/>
</svg>
